<?xml version="1.0" encoding="UTF-8" standalone="no"?>
<!DOCTYPE svg PUBLIC "-//W3C//DTD SVG 1.1//EN" "http://www.w3.org/Graphics/SVG/1.1/DTD/svg11.dtd">

<!-- Created with Vectornator (http://vectornator.io/) -->
<svg height="100%" stroke-miterlimit="10" style="fill-rule:nonzero;clip-rule:evenodd;stroke-linecap:round;stroke-linejoin:round;" version="1.1" viewBox="0 0 1024 1024" width="100%" xml:space="preserve" xmlns="http://www.w3.org/2000/svg" xmlns:vectornator="http://vectornator.io" xmlns:xlink="http://www.w3.org/1999/xlink">
<metadata>
<vectornator:setting key="IsTimeLapseWatermarkDisabled" value="false"/>
<vectornator:setting key="UndoHistoryDisabled" value="true"/>
<vectornator:setting key="VNDimensionsVisible" value="true"/>
<vectornator:setting key="VNSnapToGuides" value="true"/>
<vectornator:setting key="WDCMYKEnabledKey" value="false"/>
<vectornator:setting key="WDDisplayWhiteBackground" value="false"/>
<vectornator:setting key="WDDynamicGuides" value="false"/>
<vectornator:setting key="WDGuidesVisible" value="true"/>
<vectornator:setting key="WDIsolateActiveLayer" value="false"/>
<vectornator:setting key="WDOutlineMode" value="false"/>
<vectornator:setting key="WDRulersVisible" value="true"/>
<vectornator:setting key="WDSnapToEdges" value="true"/>
<vectornator:setting key="WDSnapToGrid" value="true"/>
<vectornator:setting key="WDSnapToPoints" value="false"/>
<vectornator:setting key="WDUnits" value="Pixels"/>
</metadata>
<defs>
<clipPath id="TextBounds">
<rect height="256" width="770" x="127" y="656"/>
</clipPath>
<filter color-interpolation-filters="sRGB" filterUnits="userSpaceOnUse" height="808" id="Filter" width="2350" x="0" y="380">
<feDropShadow dx="-7.34641e-05" dy="20" flood-color="#4242db" flood-opacity="1" height="808" stdDeviation="0" width="2350"/>
</filter>
</defs>
<g id="Layer-5" vectornator:layerName="Layer 5">
<path d="M484.312 32C472.6 32 462.545 40.4945 460.625 52.0625L445.906 140.469C424.381 144.273 403.444 149.837 383.344 157.125L326.469 88.0312C319.029 78.9592 306.114 76.596 295.938 82.5L248.062 110.156C237.887 116.012 233.466 128.368 237.594 139.312L269.031 223.281C252.514 237.196 237.228 252.515 223.312 269.031L139.312 237.594C128.368 233.466 116.012 237.886 110.156 248.062L82.5 295.937C76.596 306.113 78.9592 319.029 88.0312 326.469L157.125 383.344C149.837 403.444 144.273 424.381 140.469 445.906L52.0625 460.625C40.4945 462.593 32 472.584 32 484.344L32 539.687C32 551.399 40.4945 561.455 52.0625 563.375L140.469 578.094C144.273 599.619 149.837 620.556 157.125 640.656L88.0312 697.531C78.9592 704.971 76.644 717.886 82.5 728.062L110.156 775.937C116.012 786.113 128.368 790.534 139.312 786.406L223.281 754.969C237.196 771.486 252.515 786.772 269.031 800.687L237.594 884.625C233.466 895.617 237.935 907.956 248.062 913.812L295.938 941.469C306.114 947.325 319.029 944.962 326.469 935.937L367.688 885.875C335.686 843.144 317.759 802.998 316.906 732.5C316.906 731.134 316.977 729.772 317 728.406C257.863 675.088 220.687 597.892 220.688 512C220.688 351.114 351.114 220.687 512 220.687C672.886 220.687 803.313 351.114 803.312 512C803.312 596.524 767.283 672.598 709.781 725.812C721.821 764.977 724.898 820.176 724.125 863.844C723.806 881.876 728.986 896.385 736.156 911.5C737.9 915.176 743.957 923.844 754.031 924.812C754.806 924.887 755.415 925.137 756.125 925.281L775.938 913.844C786.114 907.988 790.534 895.631 786.406 884.687L754.969 800.719C771.486 786.804 786.772 771.485 800.688 754.969L884.625 786.406C895.617 790.534 907.956 786.065 913.812 775.937L941.469 728.062C947.325 717.886 944.962 704.971 935.938 697.531L866.875 640.656C874.163 620.556 879.727 599.619 883.531 578.094L971.938 563.375C983.505 561.407 992 551.416 992 539.656L992 484.312C992 472.6 983.505 462.545 971.938 460.625L883.531 445.906C879.727 424.381 874.163 403.444 866.875 383.344L935.969 326.469C945.041 319.029 947.356 306.113 941.5 295.937L913.844 248.062C907.988 237.886 895.631 233.466 884.688 237.594L800.719 269.031C786.804 252.514 771.485 237.228 754.969 223.312L786.406 139.375C790.534 128.383 786.066 116.043 775.938 110.187L728.062 82.5312C717.886 76.6752 704.971 79.0385 697.531 88.0625L640.656 157.125C620.556 149.837 599.619 144.273 578.094 140.469L563.375 52.0625C561.407 40.4945 551.416 32 539.656 32L484.312 32ZM494.219 285.906C483.607 286.129 473.396 287.717 463.781 290.844C456.203 293.309 437.705 302.196 415.812 317.375C413.473 318.894 410.781 319.782 408 320C363.048 324.775 324.805 350.492 310.562 394.312C310.335 395.094 310.209 395.905 310.188 396.719C310.054 398.178 309.557 405.29 314.25 410.094L314.312 410.187C322.137 418.131 348.892 413.773 351.5 413.375C367.566 410.867 391.479 413.666 425.344 437.875C425.344 438.054 425.321 438.062 425.5 438.062C456.159 467.607 456.219 520.669 425.5 550.094C412.258 563.349 400.478 578.002 390.375 593.781L390.375 593.812C372.482 621.719 360.199 652.831 354.219 685.437L354.219 685.469C351.351 700.986 349.899 716.72 349.906 732.5C350.962 819.759 377.68 860.354 425.5 917.094C426.794 918.069 428.321 920.314 426.031 921.25C360.542 950.554 341.758 992.038 435.812 992L608.25 992C636.809 992.038 638.31 974.456 643.406 952.656C644.505 947.632 647.648 943.274 652.094 940.687C654.141 939.43 656.545 938.868 658.938 939.094C662.445 939.656 665.778 941.063 668.625 943.187C675.278 947.897 682.242 952.133 689.5 955.844C697.104 959.797 701.286 961.396 722.312 963.812C740.415 965.893 740.779 942.615 722.031 940.812C711.957 939.844 705.9 931.176 704.156 927.5C696.986 912.385 691.806 897.876 692.125 879.844C692.931 834.362 689.679 776.182 676.344 736.844C660.307 689.535 643.578 654.371 637.281 635.031C602.863 529.313 604.204 496.577 613.281 454.719C616.021 442.086 619.457 431.804 621.25 417.812C621.921 412.567 622.333 407.287 622.438 402C622.653 390.984 623.005 373.159 614.719 353.5C608.834 340.071 600.147 328.028 589.25 318.219C577.78 307.942 564.262 300.221 549.594 295.531C530.69 288.983 511.905 285.535 494.219 285.906Z" fill="#ffffff" fill-rule="evenodd" opacity="1" stroke="#ffffff" stroke-linecap="round" stroke-linejoin="round" stroke-width="44"/>
</g>
<g id="Layer-1" vectornator:layerName="Layer 1">
<path d="M484.312 32C472.6 32 462.545 40.4945 460.625 52.0625L445.906 140.469C424.381 144.273 403.444 149.837 383.344 157.125L326.469 88.0312C319.029 78.9592 306.114 76.596 295.938 82.5L248.062 110.156C237.887 116.012 233.466 128.368 237.594 139.312L269.031 223.281C252.514 237.196 237.228 252.515 223.312 269.031L139.312 237.594C128.368 233.466 116.012 237.887 110.156 248.062L82.5 295.938C76.596 306.113 78.9592 319.029 88.0312 326.469L157.125 383.344C149.837 403.444 144.273 424.381 140.469 445.906L52.0625 460.625C40.4945 462.593 32 472.584 32 484.344L32 539.688C32 551.4 40.4945 561.455 52.0625 563.375L140.469 578.094C144.273 599.619 149.837 620.556 157.125 640.656L88.0312 697.531C78.9592 704.971 76.644 717.886 82.5 728.062L110.156 775.938C116.012 786.114 128.369 790.534 139.312 786.406L223.281 754.969C237.196 771.486 252.515 786.772 269.031 800.688L237.594 884.625C233.466 895.617 237.934 907.956 248.062 913.812L295.938 941.469C306.114 947.325 319.029 944.962 326.469 935.938L367.688 885.875C335.686 843.144 317.759 802.998 316.906 732.5C316.906 731.134 316.977 729.772 317 728.406C257.863 675.088 220.688 597.892 220.688 512C220.688 351.114 351.114 220.688 512 220.688C672.886 220.687 803.313 351.114 803.312 512C803.312 596.524 767.283 672.598 709.781 725.812C721.821 764.977 724.898 820.176 724.125 863.844C723.806 881.876 728.986 896.385 736.156 911.5C737.9 915.176 743.957 923.844 754.031 924.812C754.806 924.887 755.415 925.137 756.125 925.281L775.938 913.844C786.114 907.988 790.534 895.631 786.406 884.688L754.969 800.719C771.486 786.804 786.772 771.485 800.688 754.969L884.625 786.406C895.617 790.534 907.956 786.066 913.812 775.938L941.469 728.062C947.325 717.886 944.962 704.971 935.938 697.531L866.875 640.656C874.163 620.556 879.727 599.619 883.531 578.094L971.938 563.375C983.505 561.407 992 551.416 992 539.656L992 484.312C992 472.6 983.505 462.545 971.938 460.625L883.531 445.906C879.727 424.381 874.163 403.444 866.875 383.344L935.969 326.469C945.041 319.029 947.356 306.114 941.5 295.938L913.844 248.062C907.988 237.886 895.631 233.466 884.688 237.594L800.719 269.031C786.804 252.514 771.485 237.228 754.969 223.312L786.406 139.375C790.534 128.383 786.066 116.044 775.938 110.188L728.062 82.5312C717.886 76.6752 704.971 79.0385 697.531 88.0625L640.656 157.125C620.556 149.837 599.619 144.273 578.094 140.469L563.375 52.0625C561.407 40.4945 551.416 32 539.656 32L484.312 32Z" fill="#4242db" fill-rule="evenodd" opacity="1" stroke="none"/>
</g>
<g id="Layer-3" vectornator:layerName="Layer 3"/>
<g id="Layer-2" vectornator:layerName="Layer 2">
<g opacity="1">
<path d="M722.318 963.799C701.292 961.382 697.119 959.795 689.515 955.842C682.257 952.131 675.275 947.905 668.621 943.196C665.774 941.071 662.455 939.668 658.947 939.106C656.555 938.88 654.154 939.438 652.107 940.696C647.661 943.283 644.505 947.616 643.407 952.641C638.31 974.441 636.807 992.038 608.248 992L435.801 992C341.746 992.038 360.536 950.549 426.026 921.245C428.315 920.309 426.802 918.08 425.508 917.104C377.688 860.365 350.971 819.771 349.916 732.512C349.908 716.732 351.348 700.985 354.216 685.468L354.216 685.448C360.196 652.842 372.476 621.715 390.369 593.809L390.389 593.769C400.492 577.99 412.266 563.345 425.508 550.09C456.227 520.665 456.167 467.609 425.508 438.065C425.329 438.065 425.329 438.065 425.329 437.885C391.464 413.677 367.554 410.869 351.488 413.378C348.88 413.776 322.143 418.116 314.319 410.173L314.252 410.105C309.559 405.301 310.044 398.188 310.178 396.729C310.199 395.915 310.325 395.107 310.553 394.325C324.795 350.505 363.057 324.786 408.009 320.011C410.79 319.793 413.473 318.883 415.813 317.363C437.705 302.184 456.202 293.315 463.78 290.85C489.42 282.512 519.35 285.05 549.596 295.527C564.264 300.217 577.775 307.954 589.245 318.23C600.142 328.039 608.822 340.059 614.707 353.488C622.993 373.147 622.644 390.971 622.428 401.987C622.323 407.274 621.935 412.552 621.264 417.798C619.471 431.79 616.027 442.08 613.287 454.713C604.21 496.571 602.856 529.316 637.274 635.034C643.57 654.373 660.296 689.547 676.333 736.856C689.668 776.194 692.925 834.351 692.119 879.833C691.8 897.866 696.987 912.385 704.157 927.499C705.901 931.175 711.97 939.847 722.044 940.815C740.792 942.618 740.421 965.879 722.318 963.799Z" fill="#4242db" fill-rule="evenodd" opacity="1" stroke="none"/>
<path d="M393.022 344.139C358.997 344.98 338.906 382.155 337.701 387.143C337.349 388.621 337.389 390.166 337.816 391.624C338.327 393.207 339.431 394.53 340.898 395.316C342.164 395.934 343.615 396.059 344.968 395.666C347.302 395.216 348.766 394.805 351.275 394.43C359.894 393.142 384.429 396.139 404.931 401.634C406.343 402.016 407.85 401.818 409.115 401.083C410.38 400.349 411.299 399.139 411.667 397.723C416.006 380.896 416.791 350.817 400.042 344.957C397.775 344.239 395.392 343.961 393.022 344.139Z" fill="#cccc33" fill-rule="evenodd" opacity="1" stroke="none"/>
<path d="M476.902 359.912C460.511 359.721 460.546 334.541 476.902 334.455C493.484 334.506 493.502 359.755 476.902 359.912Z" fill="#ffffff" fill-rule="evenodd" opacity="1" stroke="none"/>
<path d="M437.504 584.38C433.795 588.966 429.952 594.344 429.952 594.344C427.177 598.227 425.01 601.522 423.561 603.786L423.544 603.82C408.216 627.727 397.696 654.392 392.573 682.325L392.573 682.342C390.115 695.635 388.882 709.125 388.889 722.643C388.765 749.199 393.197 775.58 401.991 800.637C410.235 822.793 422.187 843.385 437.335 861.534C448.849 875.417 464.163 885.64 481.401 890.95C481.518 890.985 481.635 891.021 481.753 891.057C486.662 892.545 546.408 907.503 574.532 885.826C599.499 866.58 553.273 751.98 538.845 723.283C527.632 700.983 515.689 678.832 510.642 665.219C498.995 633.809 499.643 605.127 490.082 568.73C489.014 564.662 486.329 558.822 480.986 556.734C466.393 551.031 441.755 579.122 437.504 584.38Z" fill="#ffffff" fill-rule="evenodd" opacity="1" stroke="none"/>
</g>
</g>
</svg>