<?xml version="1.0" standalone="no"?>
<!DOCTYPE svg PUBLIC "-//W3C//DTD SVG 20010904//EN"
 "http://www.w3.org/TR/2001/REC-SVG-20010904/DTD/svg10.dtd">
<svg version="1.0" xmlns="http://www.w3.org/2000/svg"
 width="700.000000pt" height="700.000000pt" viewBox="0 0 700.000000 700.000000"
 preserveAspectRatio="xMidYMid meet">
<metadata>
Created by potrace 1.14, written by Peter Selinger 2001-2017
</metadata>
<g transform="translate(0.000000,700.000000) scale(0.100000,-0.100000)"
fill="#000000" stroke="none">
<path d="M3260 6573 c-1399 -133 -2519 -1141 -2789 -2508 -74 -375 -72 -822 4
-1204 71 -354 204 -693 391 -1002 297 -491 737 -899 1252 -1160 853 -433 1845
-449 2727 -44 341 156 708 426 967 710 397 436 665 970 772 1540 49 261 62
660 31 920 -74 617 -312 1172 -708 1645 -432 518 -1038 888 -1693 1035 -237
53 -360 67 -644 70 -146 1 -285 1 -310 -2z m1106 -964 c311 -96 631 -431 890
-934 102 -198 108 -221 101 -430 -22 -658 -424 -1966 -760 -2468 -146 -218
-321 -333 -597 -393 -124 -27 -379 -25 -512 3 l-98 21 -94 -33 c-128 -46 -245
-65 -402 -65 -151 0 -264 17 -402 61 -371 119 -649 391 -767 754 -83 254 -28
629 170 1160 73 197 206 511 232 551 31 48 38 49 388 49 270 0 353 4 457 19
142 21 164 17 213 -34 18 -19 29 -43 32 -72 4 -38 -5 -66 -66 -210 -213 -497
-330 -901 -331 -1139 -1 -269 192 -559 462 -695 37 -19 74 -34 81 -34 22 0
101 90 161 182 271 417 615 1497 692 2168 25 227 21 260 -62 420 -70 137 -214
363 -276 434 l-35 40 -90 -165 c-50 -90 -140 -259 -201 -375 -134 -257 -129
-249 -167 -270 -37 -19 -68 -17 -275 16 -111 18 -180 23 -390 24 -281 2 -293
4 -326 67 -30 58 -19 102 63 258 169 323 476 869 534 952 22 31 104 72 191 95
47 12 91 15 173 11 130 -5 231 -37 352 -113 81 -50 77 -51 109 11 41 77 110
120 244 150 84 19 214 12 306 -16z"/>
<path d="M4097 5347 c-30 -10 -44 -24 -70 -67 l-33 -55 82 -101 c200 -247 400
-602 426 -757 20 -119 -9 -408 -72 -718 -145 -719 -437 -1544 -675 -1904 -36
-55 -65 -101 -65 -103 0 -11 230 8 290 24 101 26 223 86 281 141 141 131 328
509 491 992 190 564 327 1183 330 1486 1 109 1 111 -41 199 -23 50 -75 147
-117 216 -281 472 -596 718 -827 647z"/>
<path d="M3262 5298 c-50 -9 -56 -13 -86 -61 -66 -104 -427 -748 -422 -753 0
-1 73 -7 161 -14 88 -6 197 -17 243 -24 l82 -12 139 261 c76 143 166 307 199
365 33 58 57 109 55 113 -11 18 -127 87 -177 105 -67 25 -129 31 -194 20z"/>
<path d="M2298 3540 c-109 -241 -248 -642 -291 -840 -32 -145 -50 -299 -42
-370 19 -167 120 -358 259 -487 175 -165 408 -253 663 -253 l118 0 -55 47
c-219 186 -364 433 -401 683 -35 243 53 647 248 1140 29 74 53 137 53 140 0 3
-118 5 -262 5 l-261 0 -29 -65z"/>
</g>
</svg>
